<svg xmlns="http://www.w3.org/2000/svg" viewBox="0 0 800 400" fill="none">
  <rect width="800" height="400" fill="#F5F0EB"/>
  <rect x="60" y="80" width="680" height="240" rx="20" fill="#7A1F2E" fill-opacity="0.06"/>
  <rect x="100" y="120" width="120" height="160" rx="8" fill="#7A1F2E" fill-opacity="0.12"/>
  <rect x="240" y="120" width="120" height="160" rx="8" fill="#7A1F2E" fill-opacity="0.18"/>
  <rect x="380" y="120" width="120" height="160" rx="8" fill="#7A1F2E" fill-opacity="0.24"/>
  <rect x="520" y="120" width="120" height="160" rx="8" fill="#7A1F2E" fill-opacity="0.3"/>
  <rect x="660" y="120" width="40" height="160" rx="8" fill="#7A1F2E" fill-opacity="0.08"/>
  <rect x="110" y="140" width="100" height="24" rx="4" fill="#7A1F2E" fill-opacity="0.35"/>
  <rect x="110" y="180" width="100" height="24" rx="4" fill="#7A1F2E" fill-opacity="0.25"/>
  <rect x="110" y="220" width="100" height="24" rx="4" fill="#7A1F2E" fill-opacity="0.15"/>
  <rect x="250" y="140" width="100" height="24" rx="4" fill="#7A1F2E" fill-opacity="0.4"/>
  <rect x="250" y="180" width="100" height="24" rx="4" fill="#7A1F2E" fill-opacity="0.3"/>
  <circle cx="620" cy="200" r="36" fill="#7A1F2E" fill-opacity="0.15"/>
  <path d="M608 200h24M620 188v24" stroke="#7A1F2E" stroke-width="5" stroke-linecap="round"/>
  <path d="M540 320h180" stroke="#7A1F2E" stroke-width="3" stroke-linecap="round" stroke-opacity="0.3"/>
  <text x="630" y="330" text-anchor="middle" fill="#7A1F2E" fill-opacity="0.6" font-family="system-ui,sans-serif" font-size="13" font-weight="600">Voice reorder</text>
</svg>
